<svg width="63" height="64" viewBox="0 0 63 64" fill="none" xmlns="http://www.w3.org/2000/svg">
<path fill-rule="evenodd" clip-rule="evenodd" d="M0 3.93846C0 1.77231 1.78302 0 4.16038 0H11.2925C12.8774 0 14.4623 0.590768 15.6509 1.57538L17.8302 3.34769H18.0283C21.9906 2.16616 26.7453 1.96923 31.5 1.96923C36.2547 1.96923 41.0094 2.16616 44.9717 3.34769H45.1698L47.3491 1.57538C48.5377 0.590768 50.1226 0 51.7076 0H58.8396C61.0189 0 63 1.77231 63 3.93846V6.49846C63 8.46769 62.2076 10.24 60.8208 11.6185L58.8396 12.9969C58.0472 13.7846 57.0566 14.3754 55.8679 14.5723L55.4717 14.7692C57.0566 18.5108 58.0472 22.6462 58.0472 25.9938C58.0472 39.1877 49.7264 44.8985 42.3962 50.0185C36.6509 53.9569 31.5 57.5015 31.5 64C31.5 57.5015 26.3491 53.9569 20.6038 50.0185C13.2736 44.8985 4.95283 39.3846 4.95283 25.9938C4.95283 22.6462 5.9434 18.7077 7.5283 14.7692L7.13208 14.5723C5.9434 14.1785 4.95284 13.7846 4.16038 12.9969L2.37736 11.4215C0.990568 10.0431 0.198118 8.27077 0.198118 6.30154V3.93846H0ZM36.8491 36.8246C36.8491 37.4154 36.6509 38.0062 36.0566 38.5969C35.4623 38.9908 34.8679 39.3846 34.2736 39.3846C33.6792 39.3846 33.0849 39.1877 32.6887 38.7938C33.4811 40.96 35.4623 42.9292 38.6321 39.7785C41.4057 36.8246 38.434 30.5231 35.6604 26.7815C34.6698 25.6 33.283 25.0092 31.6981 25.0092C30.1132 25.0092 28.5283 25.6 27.7358 26.7815C24.9623 30.5231 21.9906 36.8246 24.7642 39.7785C27.934 42.9292 29.9151 40.96 30.7075 38.7938C30.3113 39.1877 29.717 39.3846 29.1226 39.3846C28.3302 39.3846 27.7358 39.1877 27.3396 38.5969C26.7453 38.2031 26.5472 37.6123 26.5472 36.8246H36.8491ZM21.3962 18.1169H14.066L19.8113 22.6462C21 23.6308 22.9811 23.2369 23.7736 22.0554C24.7642 20.2831 23.3774 18.1169 21.3962 18.1169ZM41.6038 18.1169H48.934L43.1887 22.6462C42 23.6308 40.0189 23.2369 39.2264 22.0554C38.2358 20.2831 39.6227 18.1169 41.6038 18.1169Z" fill="black"/>
</svg>
